<?xml version="1.0" encoding="UTF-8"?>
<!DOCTYPE svg PUBLIC "-//W3C//DTD SVG 1.1//EN" "http://www.w3.org/Graphics/SVG/1.1/DTD/svg11.dtd">
<!-- Creator: CorelDRAW -->
<svg xmlns="http://www.w3.org/2000/svg" xml:space="preserve" width="1.6933mm" height="1.6932mm" version="1.1" style="shape-rendering:geometricPrecision; text-rendering:geometricPrecision; image-rendering:optimizeQuality; fill-rule:evenodd; clip-rule:evenodd"
viewBox="0 0 0.48 0.48"
 xmlns:xlink="http://www.w3.org/1999/xlink"
 xmlns:xodm="http://www.corel.com/coreldraw/odm/2003">
 <defs>
  <style type="text/css">
   <![CDATA[
    .fil0 {fill:none}
   ]]>
  </style>
   <clipPath id="id0">
    <path d="M-0 0.15c0,0.03 0,0.05 0.02,0.07 0.02,0.04 0.04,0.06 0.08,0.07 0.03,0.01 0.06,0.02 0.09,0.01 0,-0 0.01,-0 0.01,-0 0,-0 0.01,-0 0.01,-0 0,0.01 0,0.01 0,0.02l0.02 0.13c0,0.01 0,0.02 0,0.02l0.2 0 0 -0.03c0,-0.01 0,-0.02 0,-0.03l0.02 -0.13c0,-0.01 0,-0.02 0,-0.03l0 -0c-0,-0.01 -0,-0.02 -0.01,-0.02 -0.01,-0.01 -0.01,-0 -0.02,-0.02 -0,-0 -0,-0.01 -0.01,-0.01 -0.01,-0.01 -0.01,-0.01 -0.01,-0.02 0,-0.02 -0,-0.03 -0.02,-0.04 -0,-0 -0.01,-0 -0.01,-0.01 -0,-0 -0,-0 -0.01,-0 -0.02,-0 -0.01,-0 -0.03,-0.01 -0.02,-0.01 -0.04,-0.01 -0.06,0 -0,-0.02 -0.02,-0.06 -0.03,-0.08 -0.01,-0.01 -0.02,-0.02 -0.03,-0.03 -0.02,-0.02 -0.06,-0.03 -0.09,-0.04l-0.01 0c-0.03,0 -0.05,0 -0.07,0.01 -0.02,0.01 -0.03,0.02 -0.04,0.03 -0.03,0.03 -0.05,0.06 -0.05,0.1z"/>
   </clipPath>
    <clipPath id="id1">
     <path d="M-0 0.15l0 0c0,0.03 0,0.05 0.02,0.07 0.02,0.04 0.04,0.06 0.08,0.07 0.03,0.01 0.06,0.02 0.09,0.01 0,-0 0.01,-0 0.01,-0 0,-0 0.01,-0 0.01,-0 0,0.01 0,0.01 0,0.02l0.02 0.13c0,0.01 0,0.02 0,0.02l0.2 0 0 -0.03c0,-0.01 0,-0.02 0,-0.03l0.02 -0.13c0,-0.01 0,-0.02 0,-0.03l0 -0c-0,-0.01 -0,-0.02 -0.01,-0.02 -0.01,-0.01 -0.01,-0 -0.02,-0.02 -0,-0 -0,-0.01 -0.01,-0.01 -0.01,-0.01 -0.01,-0.01 -0.01,-0.02 0,-0.02 -0,-0.03 -0.02,-0.04 -0,-0 -0.01,-0 -0.01,-0.01 -0,-0 -0,-0 -0.01,-0 -0.02,-0 -0.01,-0 -0.03,-0.01 -0.02,-0.01 -0.04,-0.01 -0.06,0 -0,-0.02 -0.02,-0.06 -0.03,-0.08 -0.01,-0.01 -0.02,-0.02 -0.03,-0.03 -0.02,-0.02 -0.06,-0.03 -0.09,-0.04l-0.01 0c-0.03,0 -0.05,0 -0.07,0.01 -0.02,0.01 -0.03,0.02 -0.04,0.03 -0.03,0.03 -0.05,0.06 -0.05,0.1z"/>
    </clipPath>
    <clipPath id="id2">
     <path d="M-0 0.15c0,0.03 0,0.05 0.02,0.07 0.02,0.04 0.04,0.06 0.08,0.07 0.03,0.01 0.06,0.02 0.09,0.01 0,-0 0.01,-0 0.01,-0 0,-0 0.01,-0 0.01,-0 0,0.01 0,0.01 0,0.02l0.02 0.13c0,0.01 0,0.02 0,0.02l0.2 0 0 -0.03c0,-0.01 0,-0.02 0,-0.03l0.02 -0.13c0,-0.01 0,-0.02 0,-0.03l0 -0c-0,-0.01 -0,-0.02 -0.01,-0.02 -0.01,-0.01 -0.01,-0 -0.02,-0.02 -0,-0 -0,-0.01 -0.01,-0.01 -0.01,-0.01 -0.01,-0.01 -0.01,-0.02 0,-0.02 -0,-0.03 -0.02,-0.04 -0,-0 -0.01,-0 -0.01,-0.01 -0,-0 -0,-0 -0.01,-0 -0.02,-0 -0.01,-0 -0.03,-0.01 -0.02,-0.01 -0.04,-0.01 -0.06,0 -0,-0.02 -0.02,-0.06 -0.03,-0.08 -0.01,-0.01 -0.02,-0.02 -0.03,-0.03 -0.02,-0.02 -0.06,-0.03 -0.09,-0.04l-0.01 0c-0.03,0 -0.05,0 -0.07,0.01 -0.02,0.01 -0.03,0.02 -0.04,0.03 -0.03,0.03 -0.05,0.06 -0.05,0.1z"/>
    </clipPath>
 </defs>
 <g id="Camada_x0020_1">
  <metadata id="CorelCorpID_0Corel-Layer"/>
  <g>
  </g>
  <g style="clip-path:url(#id0)">
   <g id="_2378067349920">
   </g>
   <g style="clip-path:url(#id1)">
    <image x="-0" y="-0" width="0.48" height="0.48" xlink:href="icon-movie_Images\icon-movie_ImgID1.png"/>
   </g>
   <g style="clip-path:url(#id2)">
   </g>
  </g>
  <path class="fil0" d="M-0 0.15c0,0.03 0,0.05 0.02,0.07 0.02,0.04 0.04,0.06 0.08,0.07 0.03,0.01 0.06,0.02 0.09,0.01 0,-0 0.01,-0 0.01,-0 0,-0 0.01,-0 0.01,-0 0,0.01 0,0.01 0,0.02l0.02 0.13c0,0.01 0,0.02 0,0.02l0.2 0 0 -0.03c0,-0.01 0,-0.02 0,-0.03l0.02 -0.13c0,-0.01 0,-0.02 0,-0.03l0 -0c-0,-0.01 -0,-0.02 -0.01,-0.02 -0.01,-0.01 -0.01,-0 -0.02,-0.02 -0,-0 -0,-0.01 -0.01,-0.01 -0.01,-0.01 -0.01,-0.01 -0.01,-0.02 0,-0.02 -0,-0.03 -0.02,-0.04 -0,-0 -0.01,-0 -0.01,-0.01 -0,-0 -0,-0 -0.01,-0 -0.02,-0 -0.01,-0 -0.03,-0.01 -0.02,-0.01 -0.04,-0.01 -0.06,0 -0,-0.02 -0.02,-0.06 -0.03,-0.08 -0.01,-0.01 -0.02,-0.02 -0.03,-0.03 -0.02,-0.02 -0.06,-0.03 -0.09,-0.04l-0.01 0c-0.03,0 -0.05,0 -0.07,0.01 -0.02,0.01 -0.03,0.02 -0.04,0.03 -0.03,0.03 -0.05,0.06 -0.05,0.1z"/>
 </g>
</svg>
