<?xml version="1.0" encoding="UTF-8"?>
<!DOCTYPE svg PUBLIC "-//W3C//DTD SVG 1.1//EN" "http://www.w3.org/Graphics/SVG/1.1/DTD/svg11.dtd">
<!-- Creator: CorelDRAW -->
<svg xmlns="http://www.w3.org/2000/svg" xml:space="preserve" width="1.6933mm" height="1.182mm" version="1.1" style="shape-rendering:geometricPrecision; text-rendering:geometricPrecision; image-rendering:optimizeQuality; fill-rule:evenodd; clip-rule:evenodd"
viewBox="0 0 1.91 1.33"
 xmlns:xlink="http://www.w3.org/1999/xlink"
 xmlns:xodm="http://www.corel.com/coreldraw/odm/2003">
 <defs>
  <style type="text/css">
   <![CDATA[
    .fil0 {fill:black;fill-rule:nonzero}
   ]]>
  </style>
 </defs>
 <g id="Camada_x0020_1">
  <metadata id="CorelCorpID_0Corel-Layer"/>
  <g id="_2341988168656">
   <path class="fil0" d="M1.7 1.16c0,-0.01 0.01,-0.02 0.02,-0.02l0.05 0c0.01,0 0.02,0.01 0.02,0.02l0 0.08c0,0.01 -0.01,0.02 -0.02,0.02l-0.05 0c-0.01,0 -0.02,-0.01 -0.02,-0.02l0 -0.08zm0 -1.07c0,-0.01 0.01,-0.02 0.02,-0.02l0.05 0c0.01,0 0.02,0.01 0.02,0.02l0 0.08c0,0.01 -0.01,0.02 -0.02,0.02l-0.05 0c-0.01,0 -0.02,-0.01 -0.02,-0.02l0 -0.08zm-0.09 0.08c0,0.01 -0.01,0.02 -0.02,0.02l-0.05 0c-0.01,0 -0.02,-0.01 -0.02,-0.02l0 -0.08c0,-0.01 0.01,-0.02 0.02,-0.02l0.05 0c0.01,0 0.02,0.01 0.02,0.02l0 0.08zm0 1.07c0,0.01 -0.01,0.02 -0.02,0.02l-0.05 0c-0.01,0 -0.02,-0.01 -0.02,-0.02l0 -0.08c0,-0.01 0.01,-0.02 0.02,-0.02l0.05 0c0.01,0 0.02,0.01 0.02,0.02l0 0.08zm-0.17 0c0,0.01 -0.01,0.02 -0.02,0.02l-0.05 0c-0.01,0 -0.02,-0.01 -0.02,-0.02l0 -0.08c0,-0.01 0.01,-0.02 0.02,-0.02l0.05 0c0.01,0 0.02,0.01 0.02,0.02l0 0.08zm-0.17 0c0,0.01 -0.01,0.02 -0.02,0.02l-0.05 0c-0.01,0 -0.02,-0.01 -0.02,-0.02l0 -0.08c0,-0.01 0.01,-0.02 0.02,-0.02l0.05 0c0.01,0 0.02,0.01 0.02,0.02l0 0.08zm-0.17 0c0,0.01 -0.01,0.02 -0.02,0.02l-0.05 0c-0.01,0 -0.02,-0.01 -0.02,-0.02l0 -0.08c0,-0.01 0.01,-0.02 0.02,-0.02l0.05 0c0.01,0 0.02,0.01 0.02,0.02l0 0.08zm-0.17 0c0,0.01 -0.01,0.02 -0.02,0.02l-0.05 0c-0.01,0 -0.02,-0.01 -0.02,-0.02l0 -0.08c0,-0.01 0.01,-0.02 0.02,-0.02l0.05 0c0.01,0 0.02,0.01 0.02,0.02l0 0.08zm-0.17 0c0,0.01 -0.01,0.02 -0.02,0.02l-0.05 0c-0.01,0 -0.02,-0.01 -0.02,-0.02l0 -0.08c0,-0.01 0.01,-0.02 0.02,-0.02l0.05 0c0.01,0 0.02,0.01 0.02,0.02l0 0.08zm-0.17 0c0,0.01 -0.01,0.02 -0.02,0.02l-0.05 0c-0.01,0 -0.02,-0.01 -0.02,-0.02l0 -0.08c0,-0.01 0.01,-0.02 0.02,-0.02l0.05 0c0.01,0 0.02,0.01 0.02,0.02l0 0.08zm-0.17 0c0,0.01 -0.01,0.02 -0.02,0.02l-0.05 0c-0.01,0 -0.02,-0.01 -0.02,-0.02l0 -0.08c0,-0.01 0.01,-0.02 0.02,-0.02l0.05 0c0.01,0 0.02,0.01 0.02,0.02l0 0.08zm-0.08 -1.15c0,-0.01 0.01,-0.02 0.02,-0.02l0.05 0c0.01,0 0.02,0.01 0.02,0.02l0 0.08c0,0.01 -0.01,0.02 -0.02,0.02l-0.05 0c-0.01,0 -0.02,-0.01 -0.02,-0.02l0 -0.08zm0.17 0c0,-0.01 0.01,-0.02 0.02,-0.02l0.05 0c0.01,0 0.02,0.01 0.02,0.02l0 0.08c0,0.01 -0.01,0.02 -0.02,0.02l-0.05 0c-0.01,0 -0.02,-0.01 -0.02,-0.02l0 -0.08zm0.17 0c0,-0.01 0.01,-0.02 0.02,-0.02l0.05 0c0.01,0 0.02,0.01 0.02,0.02l0 0.08c0,0.01 -0.01,0.02 -0.02,0.02l-0.05 0c-0.01,0 -0.02,-0.01 -0.02,-0.02l0 -0.08zm0.17 0c0,-0.01 0.01,-0.02 0.02,-0.02l0.05 0c0.01,0 0.02,0.01 0.02,0.02l0 0.08c0,0.01 -0.01,0.02 -0.02,0.02l-0.05 0c-0.01,0 -0.02,-0.01 -0.02,-0.02l0 -0.08zm0.17 0c0,-0.01 0.01,-0.02 0.02,-0.02l0.05 0c0.01,0 0.02,0.01 0.02,0.02l0 0.08c0,0.01 -0.01,0.02 -0.02,0.02l-0.05 0c-0.01,0 -0.02,-0.01 -0.02,-0.02l0 -0.08zm0.17 0c0,-0.01 0.01,-0.02 0.02,-0.02l0.05 0c0.01,0 0.02,0.01 0.02,0.02l0 0.08c0,0.01 -0.01,0.02 -0.02,0.02l-0.05 0c-0.01,0 -0.02,-0.01 -0.02,-0.02l0 -0.08zm0.38 0.14c0.02,0 0.04,0.02 0.04,0.04l0 0.78c0,0.02 -0.02,0.04 -0.04,0.04l-1.2 0c-0.02,0 -0.04,-0.02 -0.04,-0.04l0 -0.78c0,-0.02 0.02,-0.04 0.04,-0.04l1.2 0zm-0.21 -0.14c0,-0.01 0.01,-0.02 0.02,-0.02l0.05 0c0.01,0 0.02,0.01 0.02,0.02l0 0.08c0,0.01 -0.01,0.02 -0.02,0.02l-0.05 0c-0.01,0 -0.02,-0.01 -0.02,-0.02l0 -0.08zm-1.13 0.08c0,0.01 -0.01,0.02 -0.02,0.02l-0.05 0c-0.01,0 -0.02,-0.01 -0.02,-0.02l0 -0.08c0,-0.01 0.01,-0.02 0.02,-0.02l0.05 0c0.01,0 0.02,0.01 0.02,0.02l0 0.08zm0 1.07c0,0.01 -0.01,0.02 -0.02,0.02l-0.05 0c-0.01,0 -0.02,-0.01 -0.02,-0.02l0 -0.08c0,-0.01 0.01,-0.02 0.02,-0.02l0.05 0c0.01,0 0.02,0.01 0.02,0.02l0 0.08zm1.4 -1.24l-1.62 0 0 0.08 0.02 0c0.01,0 0.02,0.01 0.02,0.02l0 0.08c0,0.01 -0.01,0.02 -0.02,0.02l-0.02 0 0 0.05 0.17 0c0.02,0 0.04,0.02 0.04,0.04l0 0.78c0,0.02 -0.02,0.04 -0.04,0.04l-0.17 0 0 0.05 0.02 0c0.01,0 0.02,0.01 0.02,0.02l0 0.08c0,0.01 -0.01,0.02 -0.02,0.02l-0.02 0 0 0.08 1.91 0 0 -0.08 -0.02 0c-0.01,0 -0.02,-0.01 -0.02,-0.02l0 -0.08c0,-0.01 0.01,-0.02 0.02,-0.02l0.02 0 0 -0.05 -0.17 0c-0.02,0 -0.04,-0.02 -0.04,-0.04l0 -0.78c0,-0.02 0.02,-0.04 0.04,-0.04l0.17 0 0 -0.05 -0.02 0c-0.01,0 -0.02,-0.01 -0.02,-0.02l0 -0.08c0,-0.01 0.01,-0.02 0.02,-0.02l0.02 0 0 -0.08 -0.29 0z"/>
   <path class="fil0" d="M1.32 0.71l-0.55 0.3c-0.03,0.02 -0.07,-0.01 -0.07,-0.04l0 -0.6c0,-0.04 0.04,-0.06 0.07,-0.04l0.55 0.3c0.03,0.02 0.03,0.07 0,0.09z"/>
  </g>
 </g>
</svg>
