<?xml version="1.0" encoding="UTF-8"?>
<!DOCTYPE svg PUBLIC "-//W3C//DTD SVG 1.1//EN" "http://www.w3.org/Graphics/SVG/1.1/DTD/svg11.dtd">
<!-- Creator: CorelDRAW -->
<svg xmlns="http://www.w3.org/2000/svg" xml:space="preserve" width="1.6933mm" height="1.6933mm" version="1.1" style="shape-rendering:geometricPrecision; text-rendering:geometricPrecision; image-rendering:optimizeQuality; fill-rule:evenodd; clip-rule:evenodd"
viewBox="0 0 0.47 0.47"
 xmlns:xlink="http://www.w3.org/1999/xlink"
 xmlns:xodm="http://www.corel.com/coreldraw/odm/2003">
 <defs>
  <style type="text/css">
   <![CDATA[
    .fil0 {fill:black}
   ]]>
  </style>
 </defs>
 <g id="Camada_x0020_1">
  <metadata id="CorelCorpID_0Corel-Layer"/>
  <g id="_2341854584112">
   <path class="fil0" d="M-0 0.15l0 0.31c0,0.02 0.03,0.02 0.03,0l0 -0.04 0.41 0 0 0.04c0,0.02 0.03,0.02 0.03,0l0 -0.1 -0.25 0c-0.03,0 -0.05,-0.02 -0.05,-0.05l0 -0.01 -0.14 0 0 -0.15c0,-0.02 -0.03,-0.02 -0.03,0z"/>
   <path class="fil0" d="M0.19 0.26l0 0.06c0,0.01 0.01,0.01 0.01,0.01l0.26 0 0 -0.07c0,-0.02 -0.02,-0.04 -0.04,-0.04l-0.2 0c-0.02,0 -0.04,0.02 -0.04,0.04z"/>
   <path class="fil0" d="M0.08 0.23l0 0.01c0,0.02 0.02,0.04 0.04,0.04l0.01 0c0.02,0 0.04,-0.02 0.04,-0.04l0 -0.01c0,-0.02 -0.02,-0.04 -0.04,-0.04l-0.01 0c-0.02,0 -0.04,0.02 -0.04,0.04z"/>
   <path class="fil0" d="M0.25 0.01c0,0.01 0,0.01 0.01,0.02 0.01,0 0.02,0 0.02,0 -0.01,0.01 -0.03,0.03 -0.03,0.04 0,0.01 0.01,0.01 0.01,0.01l0.06 0c0.01,0 0.02,-0.03 0,-0.03 -0.01,-0 -0.02,-0 -0.02,-0 0,-0 0.02,-0.02 0.03,-0.03 0.01,-0.01 0,-0.03 -0.01,-0.03l-0.06 0c-0.01,0 -0.01,0.01 -0.01,0.01z"/>
   <path class="fil0" d="M0.14 0.09c0,0.01 0,0.01 0.01,0.02 0.01,0 0.02,0 0.02,0 -0.01,0.01 -0.03,0.03 -0.03,0.04 0,0.01 0.01,0.01 0.01,0.01l0.06 0c0.01,0 0.02,-0.03 0,-0.03 -0.01,-0 -0.02,-0 -0.02,-0 0.01,-0.01 0.03,-0.03 0.03,-0.04 0,-0.01 -0.01,-0.01 -0.01,-0.01l-0.06 0c-0.01,0 -0.01,0.01 -0.01,0.01z"/>
  </g>
 </g>
</svg>
