<?xml version="1.0" encoding="UTF-8"?>
<!DOCTYPE svg PUBLIC "-//W3C//DTD SVG 1.1//EN" "http://www.w3.org/Graphics/SVG/1.1/DTD/svg11.dtd">
<!-- Creator: CorelDRAW -->
<svg xmlns="http://www.w3.org/2000/svg" xml:space="preserve" width="1.6933mm" height="1.31mm" version="1.1" style="shape-rendering:geometricPrecision; text-rendering:geometricPrecision; image-rendering:optimizeQuality; fill-rule:evenodd; clip-rule:evenodd"
viewBox="0 0 0.47 0.37"
 xmlns:xlink="http://www.w3.org/1999/xlink"
 xmlns:xodm="http://www.corel.com/coreldraw/odm/2003">
 <defs>
  <style type="text/css">
   <![CDATA[
    .fil0 {fill:black}
   ]]>
  </style>
 </defs>
 <g id="Camada_x0020_1">
  <metadata id="CorelCorpID_0Corel-Layer"/>
  <g id="_2341990070176">
   <path class="fil0" d="M0.14 0.33c0,0.03 0.03,0.04 0.05,0.02 0.01,-0.01 0.01,-0.01 0.01,-0.02 0.04,-0.09 0.08,-0.19 0.12,-0.28 0,-0.01 0.01,-0.02 0.01,-0.02 0,-0.03 -0.03,-0.04 -0.05,-0.02 -0,0 -0,0 -0,0l-0 0c-0.01,0.01 -0.02,0.05 -0.03,0.06 -0.01,0.03 -0.02,0.06 -0.04,0.09l-0.06 0.15c-0,0.01 -0.01,0.02 -0.01,0.02z"/>
   <path class="fil0" d="M0.32 0.09c0,0.02 0.02,0.03 0.03,0.05 0.01,0.01 0.04,0.04 0.04,0.04 -0.01,0.01 -0.07,0.06 -0.07,0.07 -0.01,0.02 0,0.05 0.02,0.05 0.02,0 0.02,-0.01 0.04,-0.02l0.07 -0.07c0.01,-0.01 0.01,-0.01 0.01,-0.02l0 -0c-0,-0 -0,-0.01 -0,-0.01 -0,-0.01 -0.07,-0.08 -0.09,-0.09 -0.01,-0.01 -0.01,-0.01 -0.02,-0.02 -0.01,-0 -0.02,-0 -0.03,0.01l-0 0c-0,0.01 -0.01,0.01 -0.01,0.02z"/>
   <path class="fil0" d="M-0 0.18c0,0.02 0.01,0.03 0.02,0.04 0.01,0.01 0.02,0.02 0.03,0.03 0.01,0.01 0.02,0.02 0.03,0.03 0.01,0.01 0.03,0.03 0.05,0.02l0.01 -0c0.01,-0.01 0.01,-0.03 0.01,-0.04 -0,-0.01 -0.04,-0.05 -0.05,-0.05 -0.01,-0.01 -0.02,-0.02 -0.02,-0.02 0,-0.01 0.02,-0.02 0.02,-0.02 0.01,-0.01 0.01,-0.01 0.02,-0.02 0.01,-0.01 0.03,-0.02 0.03,-0.03 0.01,-0.01 0,-0.03 -0.01,-0.04 -0.01,-0.01 -0.02,-0.01 -0.03,-0.01 -0.01,0 -0.03,0.03 -0.04,0.04 -0.01,0.01 -0.06,0.06 -0.07,0.07 -0,0 -0.01,0.01 -0.01,0.01z"/>
  </g>
 </g>
</svg>
