<?xml version="1.0" encoding="UTF-8"?>
<!DOCTYPE svg PUBLIC "-//W3C//DTD SVG 1.1//EN" "http://www.w3.org/Graphics/SVG/1.1/DTD/svg11.dtd">
<!-- Creator: CorelDRAW -->
<svg xmlns="http://www.w3.org/2000/svg" xml:space="preserve" width="1.625mm" height="1.6034mm" version="1.1" style="shape-rendering:geometricPrecision; text-rendering:geometricPrecision; image-rendering:optimizeQuality; fill-rule:evenodd; clip-rule:evenodd"
viewBox="0 0 12.36 12.2"
 xmlns:xlink="http://www.w3.org/1999/xlink"
 xmlns:xodm="http://www.corel.com/coreldraw/odm/2003">
 <defs>
  <style type="text/css">
   <![CDATA[
    .fil0 {fill:#201E1E;fill-rule:nonzero}
   ]]>
  </style>
 </defs>
 <g id="Camada_x0020_1">
  <metadata id="CorelCorpID_0Corel-Layer"/>
  <path class="fil0" d="M6.89 2.48l-5.69 -0.9c-0.3,0 -0.3,0 -0.6,0.3l-0.3 0.3c0,0 0,0.3 0,0.3l4.49 2.1 1.8 -2.1 0.3 -0zm-3.29 7.19l7.19 -5.99c0.3,-0.3 0.9,-0.9 0.9,-1.5l0.6 -1.2c0.3,-0.6 -0.3,-1.2 -0.9,-0.9l-1.2 0.6c-0.6,0.3 -1.2,0.6 -1.5,0.9l-5.99 7.19 -2.4 0c-0.3,0 -0.3,0 -0.3,0.3 0,0 0,0.3 0,0.3l1.8 0.6c0,0 0,0.3 0,0.3 0,0 0.3,0 0.3,0l0.6 1.8c0,0 0.3,0.3 0.3,0 0,0 0.3,-0.3 0.3,-0.3l0 -2.1 0.3 -0zm6.89 1.2l-0.9 -5.39 -2.1 1.8 2.1 4.49c0,0 0.3,0 0.3,0l0.3 -0.3c0.3,-0.3 0.3,-0.3 0.3,-0.6l-0 0z"/>
 </g>
</svg>
