<?xml version="1.0" encoding="UTF-8"?>
<!DOCTYPE svg PUBLIC "-//W3C//DTD SVG 1.1//EN" "http://www.w3.org/Graphics/SVG/1.1/DTD/svg11.dtd">
<!-- Creator: CorelDRAW -->
<svg xmlns="http://www.w3.org/2000/svg" xml:space="preserve" width="1.6933mm" height="1.1052mm" version="1.1" style="shape-rendering:geometricPrecision; text-rendering:geometricPrecision; image-rendering:optimizeQuality; fill-rule:evenodd; clip-rule:evenodd"
viewBox="0 0 0.47 0.31"
 xmlns:xlink="http://www.w3.org/1999/xlink"
 xmlns:xodm="http://www.corel.com/coreldraw/odm/2003">
 <defs>
  <style type="text/css">
   <![CDATA[
    .fil0 {fill:black}
   ]]>
  </style>
 </defs>
 <g id="Camada_x0020_1">
  <metadata id="CorelCorpID_0Corel-Layer"/>
  <path class="fil0" d="M0.06 0.03c-0.01,-0 -0.02,-0 -0.03,0 -0,0 -0.01,0 -0.01,0.01 -0.01,0.01 -0.01,0.02 -0.01,0.03l0 0.17c0,0 0,0.01 0,0.01 0.01,0.01 0.02,0.02 0.03,0.02l0.02 0c0,0 0,-0 0.01,-0 0,0.02 0.02,0.03 0.04,0.03 0.02,0 0.03,-0 0.04,-0.01 0.01,-0.01 0.01,-0.02 0.01,-0.03l0 -0.05 0.18 0 0 0.06c0,0.02 0,0.02 0.01,0.03 0.01,0.01 0.02,0.01 0.04,0.01 0.02,0 0.03,-0.02 0.03,-0.03 0.01,0 0.02,0 0.03,-0 0.01,-0 0.03,-0.02 0.03,-0.03l0 -0.17c0,-0 -0,-0.01 -0,-0.01 -0,-0 -0,-0.01 -0.01,-0.01 -0.01,-0.01 -0.02,-0.01 -0.04,-0.01 -0,0 -0,0 -0.01,0 -0,-0.01 -0.01,-0.02 -0.01,-0.02 -0.02,-0.02 -0.07,-0.01 -0.07,0.03l0 0.06 -0.18 0 0 -0.06c0,-0.02 -0,-0.02 -0.01,-0.03l-0 -0c-0,-0 -0,-0 -0,-0 -0,-0 -0,-0 -0,-0 -0.01,-0.01 -0.02,-0.01 -0.04,-0.01 -0.02,0 -0.03,0.02 -0.03,0.03z"/>
 </g>
</svg>
