<?xml version="1.0" encoding="UTF-8"?>
<!DOCTYPE svg PUBLIC "-//W3C//DTD SVG 1.1//EN" "http://www.w3.org/Graphics/SVG/1.1/DTD/svg11.dtd">
<!-- Creator: CorelDRAW -->
<svg xmlns="http://www.w3.org/2000/svg" xml:space="preserve" width="1.6933mm" height="1.6882mm" version="1.1" style="shape-rendering:geometricPrecision; text-rendering:geometricPrecision; image-rendering:optimizeQuality; fill-rule:evenodd; clip-rule:evenodd"
viewBox="0 0 0.48 0.48"
 xmlns:xlink="http://www.w3.org/1999/xlink"
 xmlns:xodm="http://www.corel.com/coreldraw/odm/2003">
 <defs>
  <style type="text/css">
   <![CDATA[
    .fil0 {fill:black}
   ]]>
  </style>
 </defs>
 <g id="Camada_x0020_1">
  <metadata id="CorelCorpID_0Corel-Layer"/>
  <g id="_2341862099968">
   <path class="fil0" d="M0.13 0.02l-0.01 0c-0.03,0 -0.06,0.03 -0.06,0.06 0,0.02 0.01,0.03 0.02,0.05 0.01,0.01 0.02,0.01 0.03,0.02 0,0 0.01,0 0.01,0 0.01,0 0.01,0.01 0.01,0.02l0.02 0.07 0.03 0c-0,-0.01 -0.01,-0.04 -0.01,-0.05 0.01,0 0.01,-0 0.02,-0 0,0.01 0,0.03 0.01,0.04 0,0.01 -0,0.01 0.03,0.01l0 -0.09 0.02 0 0 0.09c0.03,0 0.03,0.01 0.03,-0.02 0,-0.01 0,-0.02 0,-0.03 0,0 0.01,0 0.02,0 0,0.01 -0,0.02 -0,0.02 -0,0 -0,0.01 -0,0.01 -0,0 -0,0.01 -0,0.01l0.03 0 0.01 -0.07c0,-0.01 0,-0.02 0.01,-0.02 0,-0 0.01,-0 0.01,-0 0.03,-0.01 0.05,-0.03 0.05,-0.06l0 -0.01c0,-0.03 -0.03,-0.06 -0.06,-0.06 -0.05,0 -0.05,0.04 -0.06,0.02 -0.02,-0.04 -0.08,-0.04 -0.11,0 -0.01,0.01 -0.01,0 -0.02,0 -0.01,-0.01 -0.02,-0.02 -0.04,-0.02z"/>
   <path class="fil0" d="M-0 0.25c0,0.02 0,0.03 0.01,0.04 0.02,0.02 0.05,0.03 0.07,0.02 0.01,-0.01 0.01,-0.01 0.02,-0 0.03,0.02 0.06,0.05 0.09,0.07 0.01,0 0.01,0.01 0.02,0.01 0.03,0.02 0.06,0.04 0.08,0.06 0.01,0.01 0.02,0.02 0.03,0.02 0.01,0 0.01,0.01 0.02,0.01 0.02,-0 0.02,-0.02 0.01,-0.03 -0,-0 -0.03,-0.02 -0.03,-0.02l-0.22 -0.14c-0.02,-0.01 0,-0.02 -0.01,-0.05 -0,-0.01 -0.01,-0.01 -0.01,-0.02 -0.02,-0.01 -0.03,-0.02 -0.05,-0.02 -0.03,0 -0.05,0.02 -0.05,0.04z"/>
   <path class="fil0" d="M0.37 0.26c0,0.02 0.01,0.02 -0.02,0.03 -0.01,0.01 -0.02,0.01 -0.03,0.02l-0.03 0.02c-0.01,0.01 -0.02,0.01 -0.03,0.02 0,0 0.02,0.01 0.02,0.01l0.02 -0.02c0.01,-0.01 0.02,-0.01 0.02,-0.02 0.01,-0 0.05,-0.03 0.05,-0.03 0.01,0 0.01,0.01 0.03,0.01 0.01,0 0.02,-0 0.03,-0.01 0.01,-0 0.02,-0.01 0.02,-0.02 0.01,-0.01 0.01,-0.02 0.01,-0.04 0,-0.02 -0.02,-0.04 -0.05,-0.04 -0.02,0 -0.03,0 -0.05,0.02 -0.01,0.01 -0.02,0.03 -0.02,0.04z"/>
   <path class="fil0" d="M0.11 0.46c0,0.01 0.01,0.02 0.02,0.02 0.01,0 0.02,-0.01 0.03,-0.02 0.01,-0.01 0.02,-0.01 0.02,-0.02 0,-0 0.01,-0.01 0.01,-0.01l0.04 -0.03c-0,-0 -0.02,-0.01 -0.02,-0.02l-0.03 0.02c-0.02,0.01 -0.05,0.03 -0.06,0.04 -0,0 -0.01,0.01 -0.01,0.01z"/>
   <path class="fil0" d="M0.16 0.27l0.16 0c0,-0 0,-0.01 0,-0.02l-0.16 0c0,0 0,0.01 0,0.02z"/>
  </g>
 </g>
</svg>
