<?xml version="1.0" encoding="UTF-8"?>
<!DOCTYPE svg PUBLIC "-//W3C//DTD SVG 1.1//EN" "http://www.w3.org/Graphics/SVG/1.1/DTD/svg11.dtd">
<!-- Creator: CorelDRAW -->
<svg xmlns="http://www.w3.org/2000/svg" xml:space="preserve" width="1.6933mm" height="1.6739mm" version="1.1" style="shape-rendering:geometricPrecision; text-rendering:geometricPrecision; image-rendering:optimizeQuality; fill-rule:evenodd; clip-rule:evenodd"
viewBox="0 0 0.43 0.42"
 xmlns:xlink="http://www.w3.org/1999/xlink"
 xmlns:xodm="http://www.corel.com/coreldraw/odm/2003">
 <defs>
  <style type="text/css">
   <![CDATA[
    .fil0 {fill:white;fill-rule:nonzero}
   ]]>
  </style>
 </defs>
 <g id="Camada_x0020_1">
  <metadata id="CorelCorpID_0Corel-Layer"/>
  <g id="_2341471936064">
   <path class="fil0" d="M0.24 0.09l-0.19 -0.03c-0.01,-0 -0.01,0 -0.02,0.01l-0.01 0.01c-0,0 -0,0.01 0,0.01l0.15 0.07 0.06 -0.07z"/>
   <path class="fil0" d="M0.36 0.37l-0.03 -0.18 -0.07 0.06 0.07 0.15c0,0 0.01,0 0.01,0l0.01 -0.01c0.01,-0.01 0.01,-0.01 0.01,-0.02z"/>
   <path class="fil0" d="M0.13 0.33l0.24 -0.2c0.01,-0.01 0.03,-0.03 0.03,-0.05l0.02 -0.04c0.01,-0.02 -0.01,-0.04 -0.03,-0.03l-0.04 0.02c-0.02,0.01 -0.04,0.02 -0.05,0.03l-0.2 0.24 -0.08 0c-0.01,0 -0.01,0 -0.01,0.01l-0 0c-0,0 -0,0.01 0,0.01l0.06 0.02c-0,0 0,0.01 0,0.01l0 0 0 0c0,0 0.01,0 0.01,0l0.02 0.06c0,0 0.01,0.01 0.01,0l0 -0c0,-0 0.01,-0.01 0.01,-0.01l0 -0.07z"/>
  </g>
 </g>
</svg>
