<?xml version="1.0" encoding="UTF-8"?>
<!DOCTYPE svg PUBLIC "-//W3C//DTD SVG 1.1//EN" "http://www.w3.org/Graphics/SVG/1.1/DTD/svg11.dtd">
<!-- Creator: CorelDRAW -->
<svg xmlns="http://www.w3.org/2000/svg" xml:space="preserve" width="1.6933mm" height="1.1251mm" version="1.1" style="shape-rendering:geometricPrecision; text-rendering:geometricPrecision; image-rendering:optimizeQuality; fill-rule:evenodd; clip-rule:evenodd"
viewBox="0 0 0.47 0.31"
 xmlns:xlink="http://www.w3.org/1999/xlink"
 xmlns:xodm="http://www.corel.com/coreldraw/odm/2003">
 <defs>
  <style type="text/css">
   <![CDATA[
    .fil0 {fill:black}
   ]]>
  </style>
 </defs>
 <g id="Camada_x0020_1">
  <metadata id="CorelCorpID_0Corel-Layer"/>
  <g id="_2341978152080">
   <path class="fil0" d="M-0 0.21l0 0.01c0,0.03 0.02,0.06 0.04,0.07 0.02,0.02 0.06,0.02 0.09,0.01 0,-0 0.01,-0 0.01,-0 0.06,-0.03 0.04,-0.08 0.07,-0.08l0.06 0c0.01,0 0.01,0 0.02,0.01 0.01,0.01 0.01,0.05 0.05,0.07 0.02,0.01 0.03,0.01 0.05,0.01 0.05,0 0.03,-0.04 0.01,-0.04 -0.01,0 -0.03,0.01 -0.05,-0.01 -0.02,-0.01 -0.02,-0.03 -0.03,-0.05 -0.01,-0.02 -0.03,-0.03 -0.05,-0.03l-0.07 0c-0.02,0 -0.04,0.02 -0.05,0.03 -0.01,0.02 -0.01,0.03 -0.03,0.05 -0.03,0.02 -0.07,0.01 -0.08,-0.03 -0.01,-0.02 -0,-0.03 0,-0.04l0.03 -0.08c0.01,-0.03 0.01,-0.05 0.04,-0.07 0.01,-0 0.02,-0.01 0.03,-0.01l0.2 0c0.02,0 0.04,0.01 0.05,0.02 0.01,0.01 0.02,0.06 0.03,0.08 0,0.01 0.01,0.02 0.01,0.03 0,0.01 0.02,0.04 0.02,0.06 0,0.01 -0.01,0.02 0,0.03 0.01,0.01 0.02,0.01 0.03,-0.01 0,-0.01 0,-0.02 0,-0.03l0 -0c0,-0.02 -0.01,-0.05 -0.02,-0.07 -0.01,-0.02 -0.01,-0.04 -0.02,-0.06 -0.01,-0.03 -0.01,-0.04 -0.03,-0.06 -0.01,-0.01 -0.02,-0.01 -0.03,-0.02 -0.01,-0 -0.02,-0.01 -0.03,-0.01l-0.21 0c-0.03,0 -0.06,0.02 -0.08,0.05 -0.01,0.01 -0.04,0.11 -0.04,0.13 -0,0.01 -0.01,0.02 -0.01,0.04z"/>
   <path class="fil0" d="M0.13 0.08l0 0.02 -0.02 0c-0.01,0 -0.02,0.02 -0.01,0.03 0.01,0.01 0.02,0.01 0.03,0.01 0,0.02 -0,0.04 0.02,0.04 0.01,0 0.02,-0.01 0.02,-0.02l0 -0.02 0.02 0c0.01,0 0.02,-0.01 0.02,-0.02l0 -0.01c0,-0.01 -0.01,-0.02 -0.02,-0.02l-0.02 0 0 -0.02c0,-0.01 -0.01,-0.02 -0.02,-0.02l-0.01 0c-0.01,0 -0.02,0.01 -0.02,0.02z"/>
   <path class="fil0" d="M0.31 0.16l0 0.01c0,0.01 0.01,0.02 0.02,0.02l0.01 0c0.01,0 0.02,-0.01 0.02,-0.02l0 -0.01c0,-0.01 -0.01,-0.02 -0.02,-0.02l-0.01 0c-0.01,0 -0.02,0.01 -0.02,0.02z"/>
   <path class="fil0" d="M0.31 0.08l0 0.01c0,0.01 0.01,0.02 0.02,0.02l0.01 0c0.01,0 0.02,-0.01 0.02,-0.02l0 -0.01c0,-0.01 -0.01,-0.02 -0.02,-0.02l-0.01 0c-0.01,0 -0.02,0.01 -0.02,0.02z"/>
   <path class="fil0" d="M0.27 0.12l0 0.01c0,0.01 0.01,0.02 0.02,0.02l0.01 0c0.01,0 0.02,-0.01 0.02,-0.02l0 -0.01c0,-0.01 -0.01,-0.02 -0.02,-0.02l-0.01 0c-0.01,0 -0.02,0.01 -0.02,0.02z"/>
   <path class="fil0" d="M0.34 0.12l0 0.01c0,0.01 0.01,0.02 0.02,0.02l0.01 0c0.01,0 0.02,-0.01 0.02,-0.02l0 -0.01c0,-0.01 -0.01,-0.02 -0.02,-0.02l-0.01 0c-0.01,0 -0.02,0.01 -0.02,0.02z"/>
  </g>
 </g>
</svg>
