<?xml version="1.0" encoding="UTF-8"?>
<!DOCTYPE svg PUBLIC "-//W3C//DTD SVG 1.1//EN" "http://www.w3.org/Graphics/SVG/1.1/DTD/svg11.dtd">
<!-- Creator: CorelDRAW -->
<svg xmlns="http://www.w3.org/2000/svg" xml:space="preserve" width="1.6933mm" height="1.628mm" version="1.1" style="shape-rendering:geometricPrecision; text-rendering:geometricPrecision; image-rendering:optimizeQuality; fill-rule:evenodd; clip-rule:evenodd"
viewBox="0 0 0.48 0.46"
 xmlns:xlink="http://www.w3.org/1999/xlink"
 xmlns:xodm="http://www.corel.com/coreldraw/odm/2003">
 <defs>
  <style type="text/css">
   <![CDATA[
    .fil0 {fill:black}
   ]]>
  </style>
 </defs>
 <g id="Camada_x0020_1">
  <metadata id="CorelCorpID_0Corel-Layer"/>
  <g id="_2341984359536">
   <path class="fil0" d="M0.2 0.24c-0,0 -0.01,0.01 -0.01,0.01 -0.01,0.01 -0,0.02 0,0.05 0,0.01 0.01,0.05 0.02,0.06 0.01,0.02 0.05,0.01 0.04,-0.02 -0,-0.01 -0.01,-0.02 -0.01,-0.03l-0.01 -0.03c0,-0 0,-0 0.01,-0.01 0,-0 0.01,-0 0.01,-0.01l0.02 -0.02 0.01 -0.01c0.01,-0.02 0,-0.03 -0,-0.05 -0.01,-0.02 -0.02,-0.05 -0.02,-0.07l0.02 0 0.05 0.03c0.01,0 0.01,0.01 0.02,0.01 0.02,-0 0.02,-0.02 0.01,-0.03l-0.07 -0.04c-0.01,-0 -0.02,-0 -0.03,-0 -0.01,-0 -0.02,-0 -0.03,-0 -0.01,0 -0.02,-0 -0.03,-0 -0.03,0 -0.05,0.02 -0.07,0.04 -0,0 -0.03,0.04 -0.03,0.04l-0.03 0.01c-0.01,0 -0.03,0.01 -0.04,0.02 -0.01,0.01 0,0.03 0.02,0.03l0.02 -0.01c0.01,-0 0.01,-0.01 0.02,-0.01 0.02,-0.01 0.03,-0.01 0.04,-0.02 0,-0 0.02,-0.03 0.02,-0.03l0.01 0.03c0,0 0,0.01 0,0.01 0,0 0,0.01 0,0.01 -0,0 -0.03,0.02 -0.04,0.02l-0.03 0.02c-0.01,0.01 -0.01,0.01 -0.02,0.03l-0.04 0.08c-0,0.01 -0.01,0.02 -0.01,0.03 0,0.02 0.03,0.02 0.04,0.01 0.01,-0.01 0.01,-0.02 0.01,-0.03l0.01 -0.01c0,-0 0,-0.01 0.01,-0.01 0.01,-0.02 0.02,-0.04 0.02,-0.05 0,-0 0,-0 0,-0.01 0,-0 0,-0 0.01,-0l0.05 -0.02c0,-0 0,-0 0.01,-0z"/>
   <path class="fil0" d="M0.25 0.28c0,0 0.01,0.05 0.02,0.06 0.01,0.03 -0.04,0.05 -0.06,0.03 -0.01,-0.01 -0.01,-0.04 -0.02,-0.05l-0.01 -0.03 -0.04 0.01c-0,0 -0,0 -0.01,0.01 -0,0 -0,0 -0,0 -0.01,0.02 -0.02,0.05 -0.03,0.07 -0.01,0.02 -0.01,0.03 -0.04,0.03 -0.02,0 -0.04,-0.03 -0.03,-0.05 -0.01,0 -0.04,0.03 -0.04,0.05 0,0 0,0 0,0 0,0 0.01,-0 0.01,-0 0.01,0 0.02,0 0.03,0.01 0,0 0,0 0.01,0 0.01,0.01 0.01,0.01 0.02,0.01 0.01,0 0.02,-0.01 0.04,-0.02 0.01,-0 0.02,-0 0.03,0l0.02 0.01c0.01,0.01 0.01,0.01 0.03,0 0.02,-0.01 0.05,-0.01 0.07,-0.02 0.03,-0.01 0.09,-0.04 0.11,-0.07 0.02,-0.02 0.04,-0.05 0,-0.06 -0.03,-0.01 -0.07,-0.01 -0.1,-0 -0.01,0 -0.02,0.02 -0.02,0.02z"/>
   <path class="fil0" d="M-0 0.43l0 0c0,0 0,0.01 0,0.01 0.01,0 0.01,-0 0.03,0.01 0.02,0.01 0.02,0.01 0.04,0.01 0.03,0 0.04,-0.03 0.07,-0.02 0.02,0.01 0.02,0.02 0.05,0.02 0.03,0 0.03,-0.02 0.05,-0.02 0.03,0 0.02,0.02 0.06,0.02 0.02,0 0.02,-0.01 0.03,-0.01 0.01,-0 0.01,-0.01 0.02,-0.01 0.01,0 0.02,0.01 0.03,0.01 0.02,0.01 0.03,0.01 0.05,0.01 0.01,-0 0.01,-0.01 0.01,-0.01 0.02,-0.01 0.02,-0.01 0.03,-0.01 0,-0 0,-0 0.01,-0.01l0 -0c-0,-0.01 -0.01,-0.01 -0.03,-0 -0.02,0.01 -0.01,0.02 -0.04,0.02 -0.02,0 -0.03,-0.03 -0.07,-0.02 -0.02,0 -0.02,0.02 -0.04,0.02 -0.03,0 -0.02,-0.01 -0.05,-0.02 -0.04,-0.01 -0.05,0.02 -0.07,0.02 -0.02,0 -0.02,-0 -0.03,-0.01 -0,-0 -0.01,-0 -0.01,-0.01 -0.04,-0.01 -0.05,0.02 -0.07,0.02 -0.04,0 -0.02,-0.01 -0.06,-0.02 -0.01,-0 -0.01,0 -0.01,0.01z"/>
   <path class="fil0" d="M0.14 0.04c0,0.02 0.02,0.04 0.04,0.04 0.02,0 0.04,-0.02 0.04,-0.04 0,-0.02 -0.02,-0.04 -0.04,-0.04 -0.02,0 -0.04,0.02 -0.04,0.04z"/>
   <path class="fil0" d="M0.41 0.24c0,0 0,0 0,0 0,0 0,-0 0.01,-0.01 0.01,-0.01 0.01,-0.01 0.02,-0.02 0.01,-0.01 0.02,-0.01 0.02,-0.03 0,-0.02 -0.01,-0.03 -0.04,0.01 -0,0.01 -0.01,0.03 -0.01,0.04z"/>
   <path class="fil0" d="M0.42 0.27c0,0 0.01,0 0.01,0 0,0 0.01,0 0.01,0 0.02,0 0.03,-0.04 -0.02,-0.01 -0,0 -0,0 -0,0z"/>
  </g>
 </g>
</svg>
