<?xml version="1.0" encoding="UTF-8"?>
<!DOCTYPE svg PUBLIC "-//W3C//DTD SVG 1.1//EN" "http://www.w3.org/Graphics/SVG/1.1/DTD/svg11.dtd">
<!-- Creator: CorelDRAW -->
<svg xmlns="http://www.w3.org/2000/svg" xml:space="preserve" width="1.6934mm" height="1.7065mm" version="1.1" style="shape-rendering:geometricPrecision; text-rendering:geometricPrecision; image-rendering:optimizeQuality; fill-rule:evenodd; clip-rule:evenodd"
viewBox="0 0 0.48 0.48"
 xmlns:xlink="http://www.w3.org/1999/xlink"
 xmlns:xodm="http://www.corel.com/coreldraw/odm/2003">
 <defs>
  <style type="text/css">
   <![CDATA[
    .fil0 {fill:black}
   ]]>
  </style>
 </defs>
 <g id="Camada_x0020_1">
  <metadata id="CorelCorpID_0Corel-Layer"/>
  <path class="fil0" d="M0.13 0.32c-0.04,-0.02 -0.07,-0.01 -0.1,0.01 -0.04,0.03 -0.03,0.1 0.01,0.13 0.01,0.01 0.03,0.02 0.04,0.02l0.01 0c0.02,-0 0.04,-0.01 0.05,-0.02 0,-0 0,-0 0.01,-0.01 0.01,-0.01 0.01,-0.02 0.02,-0.03 0,-0.01 0.01,-0.02 0.01,-0.04l-0 -0.22c0,-0.01 -0,-0 0.01,-0.01 0.01,-0 0.01,-0 0.02,-0l0.21 -0.03c0.01,-0 0.01,-0 0.02,-0l0 0.14c-0.01,-0 -0.01,-0.01 -0.02,-0.01 -0.06,-0.02 -0.11,0.03 -0.11,0.08 0,0.02 0,0.04 0.02,0.06 0.02,0.02 0.04,0.04 0.07,0.04 0.04,0 0.08,-0.04 0.08,-0.08l0 -0.33c0,-0.01 -0.01,-0.02 -0.02,-0.02 -0.01,0 -0.13,0.02 -0.14,0.02 -0.05,0.01 -0.09,0.01 -0.14,0.02 -0.02,0 -0.04,0 -0.04,0.02 -0,0.01 -0,0.09 -0,0.1 0,0.05 0,0.11 0,0.16z"/>
 </g>
</svg>
