<?xml version="1.0" encoding="UTF-8"?>
<!DOCTYPE svg PUBLIC "-//W3C//DTD SVG 1.1//EN" "http://www.w3.org/Graphics/SVG/1.1/DTD/svg11.dtd">
<!-- Creator: CorelDRAW -->
<svg xmlns="http://www.w3.org/2000/svg" xml:space="preserve" width="1.6934mm" height="1.2084mm" version="1.1" style="shape-rendering:geometricPrecision; text-rendering:geometricPrecision; image-rendering:optimizeQuality; fill-rule:evenodd; clip-rule:evenodd"
viewBox="0 0 0.47 0.34"
 xmlns:xlink="http://www.w3.org/1999/xlink"
 xmlns:xodm="http://www.corel.com/coreldraw/odm/2003">
 <defs>
  <style type="text/css">
   <![CDATA[
    .fil0 {fill:#010101}
   ]]>
  </style>
 </defs>
 <g id="Camada_x0020_1">
  <metadata id="CorelCorpID_0Corel-Layer"/>
  <path class="fil0" d="M0.05 0.03c-0.04,0.01 -0.03,-0.01 -0.04,0.04 -0.01,0 -0.01,-0 -0.01,0 -0,0.01 -0,0.25 -0,0.25 0.01,0.01 0.04,0 0.05,0l0.15 0c0,0 0,0 0,0l0 0.01c0,0 0,0 0.01,0l0.05 0c0,-0 0.01,-0 0.01,-0l0 -0.01 0.15 -0c0.01,0 0.04,0 0.05,-0 0,-0 0,-0.2 0,-0.23 0,-0.02 0,-0.02 -0.02,-0.02 -0,-0.01 0,-0.03 -0,-0.04l-0.03 -0c-0,-0.01 -0,-0.01 -0,-0.02 -0.04,-0.01 -0.11,0 -0.15,0.02 -0.01,0.01 -0.02,0.02 -0.04,0.02 -0.01,-0.01 -0.01,-0.01 -0.04,-0.03 -0.04,-0.02 -0.09,-0.03 -0.13,-0.02 -0.01,0 -0.01,0.01 -0.01,0.02zm0.19 0.28c0.02,-0.01 0.02,-0.02 0.07,-0.03 0.03,-0.01 0.06,-0.01 0.09,-0.01l0 -0.25c-0.06,-0.01 -0.1,0.01 -0.15,0.04 -0.01,0.01 -0.01,0.01 -0.01,0.02 0,0.07 0,0.15 0,0.22zm-0.18 -0.04c0.03,-0 0.06,-0 0.09,0.01 0.01,0 0.02,0.01 0.04,0.01 0.01,0 0.01,0.01 0.02,0.01 0.01,0 0.01,0.01 0.02,0.01 -0,-0.07 -0,-0.15 -0,-0.22 0,-0.02 0,-0.02 -0.02,-0.03 -0.01,-0.01 -0.02,-0.01 -0.04,-0.02 -0.03,-0.01 -0.06,-0.02 -0.1,-0.01l-0 0.25zm0.23 0.03c0,0 0.04,-0.01 0.07,-0.01 0.02,-0 0.05,0 0.07,0l-0 -0.25 -0.02 -0c-0,0.02 -0,0.15 -0,0.18 0,0.07 0.01,0.05 -0.04,0.05 -0.02,-0 -0.06,0 -0.08,0.01zm-0.27 -0.25l0 0.25c0.04,-0 0.06,-0.01 0.1,-0 0.01,0 0.02,0 0.03,0 -0.01,-0.01 -0.03,-0.01 -0.05,-0.01 -0.01,-0 -0.02,-0 -0.03,-0 -0.04,0 -0.03,0.02 -0.03,-0.05 0,-0.06 -0,-0.13 0,-0.18l-0.02 0z"/>
 </g>
</svg>
