<svg
  width="28"
  height="29"
  viewBox="0 0 28 29"
  fill="none"
  xmlns="http://www.w3.org/2000/svg"
>
  <path
    d="M3.83542 25.7941L2.98731 3.19589C2.9593 2.44956 3.53156 1.81706 4.27697 1.77047L23.4983 0.569134C24.2571 0.521713 24.9106 1.09834 24.958 1.85707C24.9598 1.88566 24.9607 1.91429 24.9607 1.94294V26.5677C24.9607 27.3279 24.3444 27.9442 23.5842 27.9442C23.5636 27.9442 23.543 27.9437 23.5224 27.9428L5.14918 27.1176C4.43361 27.0855 3.86228 26.5099 3.83542 25.7941Z"
    fill="#FF4785"
  ></path>
  <path
    fill-rule="evenodd"
    clip-rule="evenodd"
    d="M21.9874 0.662109L19.342 0.827444L19.213 3.93009C19.211 3.97779 19.2257 4.02469 19.2546 4.06272C19.3231 4.15307 19.4519 4.17075 19.5423 4.10222L20.7475 3.18798L21.7654 3.98988C21.8036 4.01993 21.8511 4.03549 21.8997 4.03379C22.013 4.02984 22.1017 3.93475 22.0977 3.82142L21.9874 0.662109ZM19.9285 11.0529C19.4443 11.429 15.837 11.6857 15.837 11.1502C15.9133 9.10668 14.9984 9.01709 14.4901 9.01709C14.0073 9.01709 13.1941 9.16306 13.1941 10.2578C13.1941 11.3734 14.3825 12.0031 15.7774 12.7424C17.759 13.7925 20.1573 15.0634 20.1573 18.2614C20.1573 21.3267 17.6668 23.0199 14.4901 23.0199C11.2118 23.0199 8.34695 21.6935 8.67051 17.0952C8.79757 16.5552 12.9653 16.6835 12.9653 17.0952C12.9145 18.9927 13.3465 19.5508 14.4393 19.5508C15.2779 19.5508 15.6591 19.0886 15.6591 18.3101C15.6591 17.132 14.4209 16.4368 12.9964 15.637C11.0677 14.5541 8.79757 13.2796 8.79757 10.3551C8.79757 7.43582 10.8052 5.48965 14.3885 5.48965C17.9717 5.48965 19.9285 7.40601 19.9285 11.0529Z"
    fill="white"
  ></path>
</svg>
